<svg viewBox="0 0 500 700" xmlns="http://www.w3.org/2000/svg" style="background-color:#F0F0F0">
  <defs>
    <linearGradient id="bgGradient" x1="0%" y1="0%" x2="100%" y2="100%">
      <stop offset="0%" style="stop-color:#E0E0E0;stop-opacity:1" />
      <stop offset="100%" style="stop-color:#F0F0F0;stop-opacity:1" />
    </linearGradient>
      <filter id="shadow" x="-10%" y="-10%" width="120%" height="120%">
          <feDropShadow dx="2" dy="2" stdDeviation="2" flood-color="#888" />
      </filter>
    </defs>
    <rect width="100%" height="100%" fill="url(#bgGradient)" />

  <g transform="translate(25, 50)">
    <text text-rendering="optimizeLegibility" font-size="95" font-weight="bold" fill="#007AFF"  filter="url(#shadow)" style="font-family: system-ui, -apple-system, BlinkMacSystemFont, 'Segoe UI', Roboto, sans-serif;">
        <tspan x="0" y="100">実践！</tspan>
        <tspan x="0" y="210">Apple MLX</tspan>
    </text>
       <text text-rendering="optimizeLegibility" font-size="45"  font-weight="bold" fill="#4CD964"  filter="url(#shadow)" style="font-family: system-ui, -apple-system, BlinkMacSystemFont, 'Segoe UI', Roboto, sans-serif;">
        <tspan x="10" y="300">とPythonで学ぶ</tspan>
    </text>
   <text text-rendering="optimizeLegibility" font-size="40" font-weight="bold" fill="#007AFF" filter="url(#shadow)"  style="font-family: system-ui, -apple-system, BlinkMacSystemFont, 'Segoe UI', Roboto, sans-serif;">
    <tspan x="10" y="360">次世代機械学習</tspan>
    <tspan x="10" y="420">環境構築</tspan>
    </text>

   <g transform="translate(20, 450)" >
        <rect x="0" y="0" width="50" height="50" fill="#007AFF" rx="8"/>
        <path d="M 15 15 L 35 15 L 25 35 Z" fill="white"/>
    </g>

    <g transform="translate(90, 450)" >
        <rect x="0" y="0" width="50" height="50" fill="#4CD964" rx="8"/>
        <path d="M 15 15 L 35 15 L 25 35 Z" fill="white"/>
    </g>

      <g transform="translate(160, 450)" >
        <rect x="0" y="0" width="50" height="50" fill="#007AFF" rx="8"/>
        <path d="M 15 15 L 35 15 L 25 35 Z" fill="white"/>
    </g>

     <g transform="translate(230, 450)" >
        <rect x="0" y="0" width="50" height="50" fill="#4CD964" rx="8"/>
         <path d="M 15 15 L 35 15 L 25 35 Z" fill="white"/>
    </g>

     <g transform="translate(300, 450)" >
        <rect x="0" y="0" width="50" height="50" fill="#007AFF" rx="8"/>
         <path d="M 15 15 L 35 15 L 25 35 Z" fill="white"/>
    </g>


     <g transform="translate(370, 450)" >
        <rect x="0" y="0" width="50" height="50" fill="#4CD964" rx="8"/>
        <path d="M 15 15 L 35 15 L 25 35 Z" fill="white"/>
    </g>

    </g>
</svg>